<svg xmlns="http://www.w3.org/2000/svg" width="16" height="16" viewBox="0 0 16 16" fill="none">
  <path d="M12.2732 8.3408L8.78772 7.05284L7.50381 3.56464C7.21774 2.78749 6.19765 2.61144 5.66764 3.24776C5.58901 3.34217 5.52713 3.44934 5.48469 3.56464L4.19266 7.05284L0.704477 8.33675C-0.072686 8.62282 -0.24873 9.64291 0.387595 10.1729C0.482002 10.2516 0.589177 10.3134 0.704477 10.3559L4.19266 11.6479L5.47658 15.1361C5.76265 15.9132 6.78274 16.0893 7.31275 15.453C7.39138 15.3586 7.45326 15.2514 7.4957 15.1361L8.78772 11.6479L12.2759 10.364C13.0531 10.0779 13.2291 9.05782 12.5928 8.52781C12.4984 8.44918 12.3912 8.3873 12.2759 8.34486L12.2732 8.3408ZM8.17955 10.7167C8.03105 10.7715 7.91398 10.8885 7.85925 11.037L6.4902 14.7462L5.12384 11.0397C5.06918 10.8896 4.95094 10.7714 4.80083 10.7167L1.09438 9.35036L4.80083 7.98401C4.95094 7.92936 5.06918 7.81111 5.12384 7.66101L6.4902 3.95455L7.85654 7.66101C7.91128 7.80951 8.02835 7.92658 8.17685 7.98131L11.886 9.35036L8.17955 10.7167ZM8.65258 2.32263C8.65258 2.02407 8.89461 1.78204 9.19317 1.78204H10.2744V0.700844C10.2744 0.284694 10.7249 0.0246004 11.0853 0.232675C11.2525 0.329244 11.3556 0.507707 11.3556 0.700844V1.78204H12.4367C12.8529 1.78204 13.113 2.23253 12.9049 2.59293C12.8083 2.76018 12.6299 2.86322 12.4367 2.86323H11.3556V3.94441C11.3556 4.36056 10.9051 4.62066 10.5447 4.41258C10.3774 4.31602 10.2744 4.13755 10.2744 3.94441V2.86323H9.19317C8.8946 2.86324 8.65258 2.6212 8.65258 2.32263ZM15.6803 5.5662C15.6803 5.86475 15.4383 6.10678 15.1397 6.10679H14.5991V6.64739C14.5991 7.06354 14.1486 7.32363 13.7882 7.11556C13.621 7.01899 13.5179 6.84053 13.5179 6.64739V6.10679H12.9773C12.5612 6.10681 12.3011 5.65633 12.5092 5.29593C12.6057 5.12865 12.7842 5.02561 12.9773 5.02561H13.5179V4.48501C13.5179 4.06886 13.9684 3.80876 14.3288 4.01684C14.4961 4.11341 14.5991 4.29188 14.5991 4.48501V5.02561H15.1397C15.4383 5.02561 15.6803 5.26764 15.6803 5.5662Z" fill="#101010"/>
</svg>